<svg width="34" height="33" viewBox="0 0 34 33" fill="none" xmlns="http://www.w3.org/2000/svg">
<rect x="4" y="4" width="30" height="29" rx="6" fill="#90CAF9"/>
<path d="M1 7.13868V4.38686L1.85009 2.69343L3.33776 1.42336L4.82543 1H5.67552L26.5028 1L28.4155 1.42336L30.1157 3.11679L30.5408 4.81022V6.71533V19.2044" stroke="#18193F" stroke-width="2" stroke-linecap="round"/>
<path d="M30.3291 23.8613V26.6131L29.4851 28.3066L28.0082 29.5766L26.5312 30H25.6872H5.00974L3.11078 29.5766L1.42283 27.8832L1.00084 26.1898V24.2847V11.7956" stroke="#18193F" stroke-width="2" stroke-linecap="round"/>
<path d="M13.5223 10.5714C12.9451 12 13.2337 11.7143 11.788 12.8571C9.48066 14 5.72711 14.2857 6.01571 13.7143C6.01571 8.98042 9.02661 6 13.8084 6C14.0995 7.71429 14.0995 9.14286 13.5223 10.5714Z" fill="#18193F"/>
<path d="M13.5223 10.5714C12.9451 12 13.2337 11.7143 11.788 12.8571C9.48066 14 5.72711 14.2857 6.01571 13.7143C6.01571 8.98042 9.02661 6 13.8084 6C14.0995 7.71429 14.0995 9.14286 13.5223 10.5714Z" fill="#18193F"/>
<path d="M15.4777 10.5714C16.0549 12 15.7663 11.7143 17.212 12.8571C19.5193 14 23.2729 14.2857 22.9843 13.7143C22.9843 8.98042 19.9734 6 15.1916 6C14.9005 7.71429 14.9005 9.14286 15.4777 10.5714Z" fill="#18193F"/>
<path d="M15.4777 10.5714C16.0549 12 15.7663 11.7143 17.212 12.8571C19.5193 14 23.2729 14.2857 22.9843 13.7143C22.9843 8.98042 19.9734 6 15.1916 6C14.9005 7.71429 14.9005 9.14286 15.4777 10.5714Z" fill="#18193F"/>
<path d="M13.5223 18.4286C12.9451 17 13.2337 17.2857 11.788 16.1429C9.48066 15 5.72711 14.7143 6.01571 15.2857C6.01571 20.0196 9.02661 23 13.8084 23C14.0995 21.2857 14.0995 19.8571 13.5223 18.4286Z" fill="#18193F"/>
<path d="M13.5223 18.4286C12.9451 17 13.2337 17.2857 11.788 16.1429C9.48066 15 5.72711 14.7143 6.01571 15.2857C6.01571 20.0196 9.02661 23 13.8084 23C14.0995 21.2857 14.0995 19.8571 13.5223 18.4286Z" fill="#18193F"/>
<path d="M15.4777 18.4286C16.0549 17 15.7663 17.2857 17.212 16.1429C19.5193 15 23.2729 14.7143 22.9843 15.2857C22.9843 20.0196 19.9734 23 15.1916 23C14.9005 21.2857 14.9005 19.8571 15.4777 18.4286Z" fill="#18193F"/>
<path d="M15.4777 18.4286C16.0549 17 15.7663 17.2857 17.212 16.1429C19.5193 15 23.2729 14.7143 22.9843 15.2857C22.9843 20.0196 19.9734 23 15.1916 23C14.9005 21.2857 14.9005 19.8571 15.4777 18.4286Z" fill="#18193F"/>
</svg>
